<svg width="24" height="24" viewBox="0 0 24 24" fill="none" xmlns="http://www.w3.org/2000/svg">
<path d="M7.02525 8.625H3V21H7.02525V8.625Z" fill="#310A90"/>
<path d="M17.9895 8.77013C17.9468 8.75663 17.9063 8.742 17.8613 8.72962C17.8073 8.71725 17.7532 8.70713 17.6981 8.69813C17.4844 8.65538 17.2504 8.625 16.9759 8.625C14.6291 8.625 13.1408 10.3316 12.6503 10.9909V8.625H8.625V21H12.6503V14.25C12.6503 14.25 15.6923 10.0133 16.9759 13.125C16.9759 15.9026 16.9759 21 16.9759 21H21V12.6491C21 10.7794 19.7186 9.22125 17.9895 8.77013Z" fill="#310A90"/>
<path d="M4.96875 6.9375C6.05606 6.9375 6.9375 6.05606 6.9375 4.96875C6.9375 3.88144 6.05606 3 4.96875 3C3.88144 3 3 3.88144 3 4.96875C3 6.05606 3.88144 6.9375 4.96875 6.9375Z" fill="#310A90"/>
</svg>
