<svg width="196" height="29" viewBox="0 0 196 29" fill="none" xmlns="http://www.w3.org/2000/svg">
<path d="M9.448 0.519999V4.792H5.272V23.224H9.448V27.496H0.28V0.519999H9.448ZM25.3409 5.008V9.232H20.8289V22H15.5009V9.232H11.0369V5.008H25.3409ZM41.1139 8.464V22H35.7859V19.936C35.3699 20.576 34.8099 21.096 34.1059 21.496C33.4179 21.896 32.5939 22.096 31.6339 22.096C30.0819 22.096 28.8659 21.576 27.9859 20.536C27.1219 19.496 26.6899 18.088 26.6899 16.312V8.464H31.9939V15.64C31.9939 16.28 32.1619 16.792 32.4979 17.176C32.8499 17.544 33.3139 17.728 33.8899 17.728C34.4819 17.728 34.9459 17.544 35.2819 17.176C35.6179 16.792 35.7859 16.28 35.7859 15.64V8.464H41.1139ZM51.9443 17.464V22H49.9283C46.2163 22 44.3603 20.152 44.3603 16.456V12.904H42.6803V8.464H44.3603V5.2H49.6883V8.464H51.8963V12.904H49.6883V16.552C49.6883 16.872 49.7603 17.104 49.9043 17.248C50.0643 17.392 50.3203 17.464 50.6723 17.464H51.9443ZM53.2534 15.232C53.2534 13.808 53.4934 12.576 53.9734 11.536C54.4694 10.48 55.1414 9.68 55.9894 9.136C56.8374 8.576 57.7894 8.296 58.8454 8.296C59.7254 8.296 60.4854 8.48 61.1254 8.848C61.7654 9.2 62.2534 9.688 62.5894 10.312V8.464H67.8934V22H62.5894V20.152C62.2534 20.776 61.7654 21.272 61.1254 21.64C60.4854 21.992 59.7254 22.168 58.8454 22.168C57.7894 22.168 56.8374 21.896 55.9894 21.352C55.1414 20.792 54.4694 19.992 53.9734 18.952C53.4934 17.896 53.2534 16.656 53.2534 15.232ZM62.5894 15.232C62.5894 14.512 62.4054 13.952 62.0374 13.552C61.6694 13.152 61.1974 12.952 60.6214 12.952C60.0454 12.952 59.5734 13.152 59.2054 13.552C58.8374 13.952 58.6534 14.512 58.6534 15.232C58.6534 15.952 58.8374 16.512 59.2054 16.912C59.5734 17.312 60.0454 17.512 60.6214 17.512C61.1974 17.512 61.6694 17.312 62.0374 16.912C62.4054 16.512 62.5894 15.952 62.5894 15.232ZM79.7659 8.368C81.3179 8.368 82.5259 8.888 83.3899 9.928C84.2699 10.968 84.7099 12.376 84.7099 14.152V22H79.4059V14.824C79.4059 14.184 79.2299 13.68 78.8779 13.312C78.5419 12.928 78.0859 12.736 77.5099 12.736C76.9179 12.736 76.4539 12.928 76.1179 13.312C75.7819 13.68 75.6139 14.184 75.6139 14.824V22H70.2859V8.464H75.6139V10.528C76.0299 9.888 76.5819 9.368 77.2699 8.968C77.9739 8.568 78.8059 8.368 79.7659 8.368ZM95.6843 22L92.3483 16.6V22H87.0203V4.24H92.3483V13.528L95.7323 8.464H101.924L96.8603 15.28L102.044 22H95.6843ZM102.519 15.232C102.519 13.808 102.759 12.576 103.239 11.536C103.735 10.48 104.407 9.68 105.255 9.136C106.103 8.576 107.055 8.296 108.111 8.296C108.991 8.296 109.751 8.48 110.391 8.848C111.031 9.2 111.519 9.688 111.855 10.312V8.464H117.159V22H111.855V20.152C111.519 20.776 111.031 21.272 110.391 21.64C109.751 21.992 108.991 22.168 108.111 22.168C107.055 22.168 106.103 21.896 105.255 21.352C104.407 20.792 103.735 19.992 103.239 18.952C102.759 17.896 102.519 16.656 102.519 15.232ZM111.855 15.232C111.855 14.512 111.671 13.952 111.303 13.552C110.935 13.152 110.463 12.952 109.887 12.952C109.311 12.952 108.839 13.152 108.471 13.552C108.103 13.952 107.919 14.512 107.919 15.232C107.919 15.952 108.103 16.512 108.471 16.912C108.839 17.312 109.311 17.512 109.887 17.512C110.463 17.512 110.935 17.312 111.303 16.912C111.671 16.512 111.855 15.952 111.855 15.232ZM135.728 23.008V28.192H119.528V23.008H135.728ZM144.96 5.008C146.736 5.008 148.288 5.368 149.616 6.088C150.96 6.808 151.992 7.808 152.712 9.088C153.432 10.368 153.792 11.824 153.792 13.456C153.792 15.072 153.432 16.528 152.712 17.824C151.992 19.12 150.96 20.144 149.616 20.896C148.288 21.632 146.736 22 144.96 22H137.88V5.008H144.96ZM144.48 17.248C145.68 17.248 146.632 16.92 147.336 16.264C148.04 15.608 148.392 14.672 148.392 13.456C148.392 12.24 148.04 11.304 147.336 10.648C146.632 9.992 145.68 9.664 144.48 9.664H143.208V17.248H144.48ZM168.82 15.112C168.82 15.48 168.796 15.832 168.748 16.168H160.18C160.26 17.336 160.748 17.92 161.644 17.92C162.22 17.92 162.636 17.656 162.892 17.128H168.532C168.34 18.088 167.932 18.952 167.308 19.72C166.7 20.472 165.924 21.072 164.98 21.52C164.052 21.952 163.028 22.168 161.908 22.168C160.564 22.168 159.364 21.888 158.308 21.328C157.268 20.768 156.452 19.968 155.86 18.928C155.284 17.872 154.996 16.64 154.996 15.232C154.996 13.824 155.284 12.6 155.86 11.56C156.452 10.504 157.268 9.696 158.308 9.136C159.364 8.576 160.564 8.296 161.908 8.296C163.252 8.296 164.444 8.576 165.484 9.136C166.54 9.68 167.356 10.464 167.932 11.488C168.524 12.512 168.82 13.72 168.82 15.112ZM163.42 13.84C163.42 13.392 163.276 13.056 162.988 12.832C162.7 12.592 162.34 12.472 161.908 12.472C160.964 12.472 160.412 12.928 160.252 13.84H163.42ZM177.369 16.936L179.529 8.464H185.193L180.681 22H174.033L169.521 8.464H175.185L177.369 16.936ZM195.918 27.496H186.75V23.224H190.926V4.792H186.75V0.519999H195.918V27.496Z" fill="#310A90"/>
</svg>
